{
	"asset":{
		"generator":"Khronos glTF Blender I/O v4.4.55",
		"version":"2.0"
	},
	"scene":0,
	"scenes":[
		{
			"name":"Scene",
			"nodes":[
				7,
				8,
				9,
				10
			]
		}
	],
	"nodes":[
		{
			"name":"Wooker",
			"rotation":[
				-1.1369157704166355e-07,
				0.7162596583366394,
				0.6978338956832886,
				5.407610714769362e-08
			],
			"scale":[
				1,
				1.000000238418579,
				1
			],
			"translation":[
				0,
				1,
				0
			]
		},
		{
			"name":"Tweeter",
			"rotation":[
				0.7071067690849304,
				-3.0908619663705394e-08,
				1.376787679419067e-07,
				0.7071067690849304
			],
			"translation":[
				0,
				1.4580340385437012,
				0
			]
		},
		{
			"children":[
				1
			],
			"name":"Tweeter_parent",
			"translation":[
				0,
				1,
				0
			]
		},
		{
			"children":[
				0,
				2
			],
			"name":"Box",
			"rotation":[
				0,
				1.1920928955078125e-07,
				0,
				1
			],
			"translation":[
				0,
				0.6214761734008789,
				0
			]
		},
		{
			"children":[
				3
			],
			"name":"Root"
		},
		{
			"name":"neutral_bone",
			"rotation":[
				-0.7071067690849304,
				0,
				0,
				0.7071067690849304
			]
		},
		{
			"mesh":0,
			"name":"Speaker_Accent",
			"skin":0
		},
		{
			"children":[
				6
			],
			"mesh":1,
			"name":"Speeker_Box",
			"skin":0
		},
		{
			"mesh":2,
			"name":"Speaker_Wooker",
			"skin":0
		},
		{
			"mesh":3,
			"name":"Speaker_Tweeter",
			"skin":0
		},
		{
			"children":[
				4,
				5
			],
			"name":"\u30a2\u30fc\u30de\u30c1\u30e5\u30a2",
			"scale":[
				0.5,
				0.5,
				0.5
			]
		}
	],
	"animations":[
		{
			"channels":[
				{
					"sampler":0,
					"target":{
						"node":4,
						"path":"translation"
					}
				},
				{
					"sampler":1,
					"target":{
						"node":4,
						"path":"rotation"
					}
				},
				{
					"sampler":2,
					"target":{
						"node":4,
						"path":"scale"
					}
				},
				{
					"sampler":3,
					"target":{
						"node":3,
						"path":"translation"
					}
				},
				{
					"sampler":4,
					"target":{
						"node":3,
						"path":"rotation"
					}
				},
				{
					"sampler":5,
					"target":{
						"node":3,
						"path":"scale"
					}
				},
				{
					"sampler":6,
					"target":{
						"node":0,
						"path":"translation"
					}
				},
				{
					"sampler":7,
					"target":{
						"node":0,
						"path":"rotation"
					}
				},
				{
					"sampler":8,
					"target":{
						"node":0,
						"path":"scale"
					}
				},
				{
					"sampler":9,
					"target":{
						"node":2,
						"path":"translation"
					}
				},
				{
					"sampler":10,
					"target":{
						"node":2,
						"path":"rotation"
					}
				},
				{
					"sampler":11,
					"target":{
						"node":2,
						"path":"scale"
					}
				},
				{
					"sampler":12,
					"target":{
						"node":1,
						"path":"translation"
					}
				},
				{
					"sampler":13,
					"target":{
						"node":1,
						"path":"rotation"
					}
				},
				{
					"sampler":14,
					"target":{
						"node":1,
						"path":"scale"
					}
				}
			],
			"name":"animation",
			"samplers":[
				{
					"input":26,
					"interpolation":"STEP",
					"output":27
				},
				{
					"input":26,
					"interpolation":"STEP",
					"output":28
				},
				{
					"input":26,
					"interpolation":"STEP",
					"output":29
				},
				{
					"input":30,
					"interpolation":"LINEAR",
					"output":31
				},
				{
					"input":30,
					"interpolation":"LINEAR",
					"output":32
				},
				{
					"input":26,
					"interpolation":"STEP",
					"output":33
				},
				{
					"input":26,
					"interpolation":"LINEAR",
					"output":34
				},
				{
					"input":26,
					"interpolation":"LINEAR",
					"output":35
				},
				{
					"input":30,
					"interpolation":"LINEAR",
					"output":36
				},
				{
					"input":26,
					"interpolation":"STEP",
					"output":37
				},
				{
					"input":26,
					"interpolation":"STEP",
					"output":38
				},
				{
					"input":26,
					"interpolation":"STEP",
					"output":39
				},
				{
					"input":26,
					"interpolation":"LINEAR",
					"output":40
				},
				{
					"input":26,
					"interpolation":"LINEAR",
					"output":41
				},
				{
					"input":30,
					"interpolation":"LINEAR",
					"output":42
				}
			]
		}
	],
	"materials":[
		{
			"doubleSided":true,
			"name":"\u30de\u30c6\u30ea\u30a2\u30eb",
			"pbrMetallicRoughness":{
				"baseColorFactor":[
					0.1893937885761261,
					0.20138899981975555,
					0.2529497444629669,
					1
				],
				"metallicFactor":0,
				"roughnessFactor":0.5
			}
		},
		{
			"doubleSided":true,
			"name":"\u30de\u30c6\u30ea\u30a2\u30eb.002",
			"pbrMetallicRoughness":{
				"baseColorFactor":[
					0.6209232211112976,
					0.405353844165802,
					0.04870451241731644,
					1
				],
				"metallicFactor":0,
				"roughnessFactor":0.5
			}
		}
	],
	"meshes":[
		{
			"name":"ICO\u7403",
			"primitives":[
				{
					"attributes":{
						"POSITION":0,
						"NORMAL":1,
						"TEXCOORD_0":2,
						"JOINTS_0":3,
						"WEIGHTS_0":4
					},
					"indices":5
				}
			]
		},
		{
			"name":"\u7acb\u65b9\u4f53.002",
			"primitives":[
				{
					"attributes":{
						"POSITION":7,
						"NORMAL":8,
						"TEXCOORD_0":9,
						"COLOR_0":10,
						"COLOR_1":11,
						"JOINTS_0":12,
						"WEIGHTS_0":13
					},
					"indices":14,
					"material":0
				}
			]
		},
		{
			"name":"\u5186\u67f1.001",
			"primitives":[
				{
					"attributes":{
						"POSITION":15,
						"NORMAL":16,
						"TEXCOORD_0":17,
						"JOINTS_0":18,
						"WEIGHTS_0":19
					},
					"indices":20,
					"material":1
				}
			]
		},
		{
			"name":"\u5186\u67f1.002",
			"primitives":[
				{
					"attributes":{
						"POSITION":21,
						"NORMAL":22,
						"TEXCOORD_0":23,
						"JOINTS_0":24,
						"WEIGHTS_0":25
					},
					"indices":20,
					"material":1
				}
			]
		}
	],
	"skins":[
		{
			"inverseBindMatrices":6,
			"joints":[
				4,
				3,
				0,
				2,
				1,
				5
			],
			"name":"\u30a2\u30fc\u30de\u30c1\u30e5\u30a2"
		}
	],
	"accessors":[
		{
			"bufferView":0,
			"componentType":5126,
			"count":240,
			"max":[
				0.5311932563781738,
				1.9089535474777222,
				0.7041215300559998
			],
			"min":[
				0.4261170029640198,
				1.7984699010849,
				0.6820247769355774
			],
			"type":"VEC3"
		},
		{
			"bufferView":1,
			"componentType":5126,
			"count":240,
			"type":"VEC3"
		},
		{
			"bufferView":2,
			"componentType":5126,
			"count":240,
			"type":"VEC2"
		},
		{
			"bufferView":3,
			"componentType":5121,
			"count":240,
			"type":"VEC4"
		},
		{
			"bufferView":4,
			"componentType":5126,
			"count":240,
			"type":"VEC4"
		},
		{
			"bufferView":5,
			"componentType":5123,
			"count":240,
			"type":"SCALAR"
		},
		{
			"bufferView":6,
			"componentType":5126,
			"count":6,
			"type":"MAT4"
		},
		{
			"bufferView":7,
			"componentType":5126,
			"count":670,
			"max":[
				0.6000000238418579,
				2,
				0.7129989266395569
			],
			"min":[
				-0.6000000238418579,
				0,
				-0.699999988079071
			],
			"type":"VEC3"
		},
		{
			"bufferView":8,
			"componentType":5126,
			"count":670,
			"type":"VEC3"
		},
		{
			"bufferView":9,
			"componentType":5126,
			"count":670,
			"type":"VEC2"
		},
		{
			"bufferView":10,
			"componentType":5121,
			"count":670,
			"normalized":true,
			"type":"VEC4"
		},
		{
			"bufferView":11,
			"componentType":5123,
			"count":670,
			"normalized":true,
			"type":"VEC4"
		},
		{
			"bufferView":12,
			"componentType":5121,
			"count":670,
			"type":"VEC4"
		},
		{
			"bufferView":13,
			"componentType":5126,
			"count":670,
			"type":"VEC4"
		},
		{
			"bufferView":14,
			"componentType":5123,
			"count":1200,
			"type":"SCALAR"
		},
		{
			"bufferView":15,
			"componentType":5126,
			"count":160,
			"max":[
				0.3300718367099762,
				1.1500718593597412,
				0.6989825963973999
			],
			"min":[
				-0.3300718367099762,
				0.48992815613746643,
				0.519241213798523
			],
			"type":"VEC3"
		},
		{
			"bufferView":16,
			"componentType":5126,
			"count":160,
			"type":"VEC3"
		},
		{
			"bufferView":17,
			"componentType":5126,
			"count":160,
			"type":"VEC2"
		},
		{
			"bufferView":18,
			"componentType":5121,
			"count":160,
			"type":"VEC4"
		},
		{
			"bufferView":19,
			"componentType":5126,
			"count":160,
			"type":"VEC4"
		},
		{
			"bufferView":20,
			"componentType":5123,
			"count":282,
			"type":"SCALAR"
		},
		{
			"bufferView":21,
			"componentType":5126,
			"count":160,
			"max":[
				0.1724712997674942,
				1.7165225744247437,
				0.7026523351669312
			],
			"min":[
				-0.1724712997674942,
				1.3715800046920776,
				0.41378161311149597
			],
			"type":"VEC3"
		},
		{
			"bufferView":22,
			"componentType":5126,
			"count":160,
			"type":"VEC3"
		},
		{
			"bufferView":23,
			"componentType":5126,
			"count":160,
			"type":"VEC2"
		},
		{
			"bufferView":24,
			"componentType":5121,
			"count":160,
			"type":"VEC4"
		},
		{
			"bufferView":25,
			"componentType":5126,
			"count":160,
			"type":"VEC4"
		},
		{
			"bufferView":26,
			"componentType":5126,
			"count":2,
			"max":[
				0.9583333333333334
			],
			"min":[
				0.041666666666666664
			],
			"type":"SCALAR"
		},
		{
			"bufferView":27,
			"componentType":5126,
			"count":2,
			"type":"VEC3"
		},
		{
			"bufferView":28,
			"componentType":5126,
			"count":2,
			"type":"VEC4"
		},
		{
			"bufferView":29,
			"componentType":5126,
			"count":2,
			"type":"VEC3"
		},
		{
			"bufferView":30,
			"componentType":5126,
			"count":23,
			"max":[
				0.9583333333333334
			],
			"min":[
				0.041666666666666664
			],
			"type":"SCALAR"
		},
		{
			"bufferView":31,
			"componentType":5126,
			"count":23,
			"type":"VEC3"
		},
		{
			"bufferView":32,
			"componentType":5126,
			"count":23,
			"type":"VEC4"
		},
		{
			"bufferView":33,
			"componentType":5126,
			"count":2,
			"type":"VEC3"
		},
		{
			"bufferView":34,
			"componentType":5126,
			"count":2,
			"type":"VEC3"
		},
		{
			"bufferView":35,
			"componentType":5126,
			"count":2,
			"type":"VEC4"
		},
		{
			"bufferView":36,
			"componentType":5126,
			"count":23,
			"type":"VEC3"
		},
		{
			"bufferView":37,
			"componentType":5126,
			"count":2,
			"type":"VEC3"
		},
		{
			"bufferView":38,
			"componentType":5126,
			"count":2,
			"type":"VEC4"
		},
		{
			"bufferView":39,
			"componentType":5126,
			"count":2,
			"type":"VEC3"
		},
		{
			"bufferView":40,
			"componentType":5126,
			"count":2,
			"type":"VEC3"
		},
		{
			"bufferView":41,
			"componentType":5126,
			"count":2,
			"type":"VEC4"
		},
		{
			"bufferView":42,
			"componentType":5126,
			"count":23,
			"type":"VEC3"
		}
	],
	"bufferViews":[
		{
			"buffer":0,
			"byteLength":2880,
			"byteOffset":0,
			"target":34962
		},
		{
			"buffer":0,
			"byteLength":2880,
			"byteOffset":2880,
			"target":34962
		},
		{
			"buffer":0,
			"byteLength":1920,
			"byteOffset":5760,
			"target":34962
		},
		{
			"buffer":0,
			"byteLength":960,
			"byteOffset":7680,
			"target":34962
		},
		{
			"buffer":0,
			"byteLength":3840,
			"byteOffset":8640,
			"target":34962
		},
		{
			"buffer":0,
			"byteLength":480,
			"byteOffset":12480,
			"target":34963
		},
		{
			"buffer":0,
			"byteLength":384,
			"byteOffset":12960
		},
		{
			"buffer":0,
			"byteLength":8040,
			"byteOffset":13344,
			"target":34962
		},
		{
			"buffer":0,
			"byteLength":8040,
			"byteOffset":21384,
			"target":34962
		},
		{
			"buffer":0,
			"byteLength":5360,
			"byteOffset":29424,
			"target":34962
		},
		{
			"buffer":0,
			"byteLength":2680,
			"byteOffset":34784,
			"target":34962
		},
		{
			"buffer":0,
			"byteLength":5360,
			"byteOffset":37464,
			"target":34962
		},
		{
			"buffer":0,
			"byteLength":2680,
			"byteOffset":42824,
			"target":34962
		},
		{
			"buffer":0,
			"byteLength":10720,
			"byteOffset":45504,
			"target":34962
		},
		{
			"buffer":0,
			"byteLength":2400,
			"byteOffset":56224,
			"target":34963
		},
		{
			"buffer":0,
			"byteLength":1920,
			"byteOffset":58624,
			"target":34962
		},
		{
			"buffer":0,
			"byteLength":1920,
			"byteOffset":60544,
			"target":34962
		},
		{
			"buffer":0,
			"byteLength":1280,
			"byteOffset":62464,
			"target":34962
		},
		{
			"buffer":0,
			"byteLength":640,
			"byteOffset":63744,
			"target":34962
		},
		{
			"buffer":0,
			"byteLength":2560,
			"byteOffset":64384,
			"target":34962
		},
		{
			"buffer":0,
			"byteLength":564,
			"byteOffset":66944,
			"target":34963
		},
		{
			"buffer":0,
			"byteLength":1920,
			"byteOffset":67508,
			"target":34962
		},
		{
			"buffer":0,
			"byteLength":1920,
			"byteOffset":69428,
			"target":34962
		},
		{
			"buffer":0,
			"byteLength":1280,
			"byteOffset":71348,
			"target":34962
		},
		{
			"buffer":0,
			"byteLength":640,
			"byteOffset":72628,
			"target":34962
		},
		{
			"buffer":0,
			"byteLength":2560,
			"byteOffset":73268,
			"target":34962
		},
		{
			"buffer":0,
			"byteLength":8,
			"byteOffset":75828
		},
		{
			"buffer":0,
			"byteLength":24,
			"byteOffset":75836
		},
		{
			"buffer":0,
			"byteLength":32,
			"byteOffset":75860
		},
		{
			"buffer":0,
			"byteLength":24,
			"byteOffset":75892
		},
		{
			"buffer":0,
			"byteLength":92,
			"byteOffset":75916
		},
		{
			"buffer":0,
			"byteLength":276,
			"byteOffset":76008
		},
		{
			"buffer":0,
			"byteLength":368,
			"byteOffset":76284
		},
		{
			"buffer":0,
			"byteLength":24,
			"byteOffset":76652
		},
		{
			"buffer":0,
			"byteLength":24,
			"byteOffset":76676
		},
		{
			"buffer":0,
			"byteLength":32,
			"byteOffset":76700
		},
		{
			"buffer":0,
			"byteLength":276,
			"byteOffset":76732
		},
		{
			"buffer":0,
			"byteLength":24,
			"byteOffset":77008
		},
		{
			"buffer":0,
			"byteLength":32,
			"byteOffset":77032
		},
		{
			"buffer":0,
			"byteLength":24,
			"byteOffset":77064
		},
		{
			"buffer":0,
			"byteLength":24,
			"byteOffset":77088
		},
		{
			"buffer":0,
			"byteLength":32,
			"byteOffset":77112
		},
		{
			"buffer":0,
			"byteLength":276,
			"byteOffset":77144
		}
	],
	"buffers":[
		{
			"byteLength":77420,
			"uri":"Speaker.bin"
		}
	]
}
