{
	"asset":{
		"generator":"Khronos glTF Blender I/O v4.4.55",
		"version":"2.0"
	},
	"scene":0,
	"scenes":[
		{
			"name":"Scene",
			"nodes":[
				0
			]
		}
	],
	"nodes":[
		{
			"mesh":0,
			"name":"overFloor",
			"scale":[
				4.115309715270996,
				3,
				3.960275173187256
			],
			"translation":[
				0,
				-9,
				-28.858449935913086
			]
		}
	],
	"materials":[
		{
			"doubleSided":true,
			"name":"\u30de\u30c6\u30ea\u30a2\u30eb.005",
			"pbrMetallicRoughness":{
				"baseColorTexture":{
					"index":0
				},
				"metallicFactor":0,
				"roughnessFactor":0.5
			}
		}
	],
	"meshes":[
		{
			"name":"\u7acb\u65b9\u4f53.001",
			"primitives":[
				{
					"attributes":{
						"POSITION":0,
						"NORMAL":1,
						"TEXCOORD_0":2
					},
					"indices":3,
					"material":0
				}
			]
		}
	],
	"textures":[
		{
			"sampler":0,
			"source":0
		}
	],
	"images":[
		{
			"mimeType":"image/png",
			"name":".png",
			"uri":"_png.png"
		}
	],
	"accessors":[
		{
			"bufferView":0,
			"componentType":5126,
			"count":196,
			"max":[
				4.006214618682861,
				1,
				3
			],
			"min":[
				-4.0137434005737305,
				-1,
				-3
			],
			"type":"VEC3"
		},
		{
			"bufferView":1,
			"componentType":5126,
			"count":196,
			"type":"VEC3"
		},
		{
			"bufferView":2,
			"componentType":5126,
			"count":196,
			"type":"VEC2"
		},
		{
			"bufferView":3,
			"componentType":5123,
			"count":294,
			"type":"SCALAR"
		}
	],
	"bufferViews":[
		{
			"buffer":0,
			"byteLength":2352,
			"byteOffset":0,
			"target":34962
		},
		{
			"buffer":0,
			"byteLength":2352,
			"byteOffset":2352,
			"target":34962
		},
		{
			"buffer":0,
			"byteLength":1568,
			"byteOffset":4704,
			"target":34962
		},
		{
			"buffer":0,
			"byteLength":588,
			"byteOffset":6272,
			"target":34963
		}
	],
	"samplers":[
		{
			"magFilter":9729,
			"minFilter":9987
		}
	],
	"buffers":[
		{
			"byteLength":6860,
			"uri":"overFloor.bin"
		}
	]
}
